<svg width="90" height="15" viewBox="0 0 90 15" fill="none" xmlns="http://www.w3.org/2000/svg">
<path d="M8 1L10.1631 5.27934L15 5.96556L11.5 9.29656L12.3262 14L8 11.7793L3.67376 14L4.5 9.29656L1 5.96556L5.83688 5.27934L8 1Z" fill="#FF5722" stroke="#FF5722" stroke-width="2" stroke-linejoin="round"/>
<path d="M25 1L27.1631 5.27934L32 5.96556L28.5 9.29656L29.3262 14L25 11.7793L20.6738 14L21.5 9.29656L18 5.96556L22.8369 5.27934L25 1Z" fill="#FF5722" stroke="#FF5722" stroke-width="2" stroke-linejoin="round"/>
<path d="M44 1L46.1631 5.27934L51 5.96556L47.5 9.29656L48.3262 14L44 11.7793L39.6738 14L40.5 9.29656L37 5.96556L41.8369 5.27934L44 1Z" fill="#FF5722" stroke="#FF5722" stroke-width="2" stroke-linejoin="round"/>
<path d="M63 1L65.1631 5.27934L70 5.96556L66.5 9.29656L67.3262 14L63 11.7793L58.6738 14L59.5 9.29656L56 5.96556L60.8369 5.27934L63 1Z" fill="#FF5722" stroke="#FF5722" stroke-width="2" stroke-linejoin="round"/>
<path d="M82 1L84.1631 5.27934L89 5.96556L85.5 9.29656L86.3262 14L82 11.7793L77.6738 14L78.5 9.29656L75 5.96556L79.8369 5.27934L82 1Z" fill="#FF5722" stroke="#FF5722" stroke-width="2" stroke-linejoin="round"/>
</svg>
