<svg width="16" height="14" viewBox="0 0 16 14" fill="none" xmlns="http://www.w3.org/2000/svg">
<path d="M1 10L1 7C1 3.68629 3.68629 1 7 1M9 10L9 7C9 3.68629 11.6863 1 15 1M3.5 7C3.96466 7 4.19698 7 4.39018 7.03843C5.18356 7.19624 5.80376 7.81644 5.96157 8.60982C6 8.80302 6 9.03534 6 9.5L6 10.5C6 10.9647 6 11.197 5.96157 11.3902C5.80376 12.1836 5.18356 12.8038 4.39018 12.9616C4.19698 13 3.96466 13 3.5 13C3.03535 13 2.80302 13 2.60982 12.9616C1.81644 12.8038 1.19624 12.1836 1.03843 11.3902C1 11.197 1 10.9647 1 10.5L1 9.5C1 9.03534 1 8.80302 1.03843 8.60982C1.19624 7.81644 1.81644 7.19624 2.60982 7.03843C2.80302 7 3.03535 7 3.5 7ZM11.5 7C11.9647 7 12.197 7 12.3902 7.03843C13.1836 7.19624 13.8038 7.81644 13.9616 8.60982C14 8.80302 14 9.03534 14 9.5L14 10.5C14 10.9647 14 11.197 13.9616 11.3902C13.8038 12.1836 13.1836 12.8038 12.3902 12.9616C12.197 13 11.9647 13 11.5 13C11.0353 13 10.803 13 10.6098 12.9616C9.81644 12.8038 9.19624 12.1836 9.03843 11.3902C9 11.197 9 10.9647 9 10.5L9 9.5C9 9.03534 9 8.80302 9.03843 8.60982C9.19624 7.81644 9.81644 7.19624 10.6098 7.03843C10.803 7 11.0353 7 11.5 7Z" stroke="#002DA3" stroke-width="2" stroke-linecap="round"/>
</svg>
