<?xml version="1.0" encoding="utf-8"?>
<!-- Generator: Adobe Illustrator 17.1.0, SVG Export Plug-In . SVG Version: 6.00 Build 0)  -->
<!DOCTYPE svg PUBLIC "-//W3C//DTD SVG 1.1//EN" "http://www.w3.org/Graphics/SVG/1.1/DTD/svg11.dtd">
<svg version="1.1" id="Layer_1" xmlns="http://www.w3.org/2000/svg" xmlns:xlink="http://www.w3.org/1999/xlink" x="0px" y="0px"
	 viewBox="0 0 50 50" enable-background="new 0 0 50 50" xml:space="preserve">
<g>
	<g>
		<path fill="#FFFFFF" stroke="#000000" stroke-miterlimit="10" d="M27,31c0,3.3-6.1,2.7-6.1,0s0.1-12.5,0.1-13.6
			c0-3.6,6.1-3.4,6.1,0S27,27.6,27,31z"/>
		<g>
			<path fill="#FFFFFF" stroke="#000000" stroke-miterlimit="10" d="M13.5,9.4c3.4,3.4,7.2,7.3,9.6,9.6c2.4,2.4-2.4,6.3-4.3,4.3
				c-1.9-2-8.8-8.9-9.6-9.6C6.6,11.1,11,6.9,13.5,9.4z"/>
			<path fill="#FFFFFF" stroke="#000000" stroke-miterlimit="10" d="M38.4,34.5c2.4,2.4-2.4,6.3-4.3,4.3s-8.8-8.9-9.6-9.6
				c-2.6-2.5,1.9-6.8,4.3-4.3S36,32.1,38.4,34.5z"/>
		</g>
	</g>
	<g>
		<path fill="#FFFFFF" stroke="#000000" stroke-miterlimit="10" d="M28.6,23.3c-2.4,2.4-6.3-2.4-4.3-4.3s8.9-8.8,9.6-9.6
			c2.5-2.6,6.8,1.9,4.3,4.3C35.8,16.2,31,21,28.6,23.3z"/>
		<path fill="#FFFFFF" stroke="#000000" stroke-miterlimit="10" d="M13.1,38.7c-2.4,2.4-6.3-2.4-4.3-4.3s8.9-8.8,9.6-9.6
			c2.5-2.6,6.8,1.9,4.3,4.3S15.5,36.3,13.1,38.7z"/>
	</g>
</g>
</svg>
