<?xml version="1.0" encoding="iso-8859-1"?>
<!-- Generator: Adobe Illustrator 19.0.0, SVG Export Plug-In . SVG Version: 6.00 Build 0)  -->
<svg version="1.1" id="Layer_1" xmlns="http://www.w3.org/2000/svg" xmlns:xlink="http://www.w3.org/1999/xlink" x="0px" y="0px"
	 viewBox="0 0 512.001 512.001" style="enable-background:new 0 0 512.001 512.001;" xml:space="preserve">
<g>
	<g>
		<path d="M438.172,143.627l-9.686-66.138l-59.923-29.61L321.896,0l-65.895,11.32L190.106,0L143.44,47.879l-59.923,29.61
			l-9.688,66.138l-31.021,59.192l31.021,59.193l9.686,66.137l53.775,26.573v135.869l51.651-22.41v43.822L256,485.24l67.059,26.761
			v-43.822l51.651,22.41V354.721l53.775-26.573l9.688-66.138l31.021-59.192L438.172,143.627z M188.942,434.955l-21.174,9.189
			v-61.424l21.174,21.725V434.955z M292.583,454.955v12.069l-36.582-14.598l-36.582,14.598v-12.069v-54.331l36.582-6.305
			l36.582,6.305V454.955z M344.234,444.144l-21.174-9.188v-30.511l21.174-21.726V444.144z M408.769,252.46l-8.122,55.45
			l-50.266,24.838l-39.122,40.139l-53.451-9.181L256,363.394l-1.869,0.322l-53.39,9.171l-39.122-40.14l-50.266-24.838l-8.121-55.45
			l-26.016-49.64l26.016-49.64l8.122-55.451L161.62,72.89l39.122-40.139l55.259,9.492l55.259-9.492l39.122,40.139l50.266,24.838
			l8.121,55.451l26.016,49.64L408.769,252.46z"/>
	</g>
</g>
<g>
	<g>
		<path d="M256.001,67.539c-74.592,0-135.278,60.686-135.278,135.279s60.685,135.279,135.278,135.279
			s135.278-60.686,135.278-135.279S330.593,67.539,256.001,67.539z M256.001,307.622c-57.788,0-104.802-47.014-104.802-104.803
			S198.213,98.016,256.001,98.016s104.802,47.015,104.802,104.803S313.789,307.622,256.001,307.622z"/>
	</g>
</g>
<g>
</g>
<g>
</g>
<g>
</g>
<g>
</g>
<g>
</g>
<g>
</g>
<g>
</g>
<g>
</g>
<g>
</g>
<g>
</g>
<g>
</g>
<g>
</g>
<g>
</g>
<g>
</g>
<g>
</g>
</svg>
