<?xml version="1.0" encoding="iso-8859-1"?>
<!-- Generator: Adobe Illustrator 19.0.0, SVG Export Plug-In . SVG Version: 6.00 Build 0)  -->
<svg version="1.1" id="Capa_1" xmlns="http://www.w3.org/2000/svg" xmlns:xlink="http://www.w3.org/1999/xlink" x="0px" y="0px"
	 viewBox="0 0 490.2 490.2" style="enable-background:new 0 0 490.2 490.2;" xml:space="preserve">
<g>
	<path fill="white" d="M426.4,165.469c-14.5,0-27.8,4.7-38.4,12.7c-78.1-66.5-149.3-89.1-210.8-68c-106.4,37.1-146.3,194.9-154.6,235.7
		c0,0-22.6-1.3-22.6,20.9c0,11.5,9.4,20.9,20.9,20.9h263.8c11.5,0,19.8-9.4,20.9-20.9c0-21.7-22-20.9-22-20.9
		c-3.7-35.7-5.2-112.7,25.1-134.5c12.9-9.2,31.6-7.8,56,2.8c-1.1,4.8-1.7,9.8-1.7,15c0,35.4,28.1,63.6,63.6,63.6
		c34.4,0,63.6-28.1,63.6-63.6S461.9,165.469,426.4,165.469z M243.2,345.869H64c10.8-45.3,47.5-168.7,126.8-196
		c32.7-11.1,70.4-5.1,112.3,18.4c-6.6,2.3-12.8,5.6-18.5,9.8C235.9,213.669,239.4,307.269,243.2,345.869z M426.4,250.969
		c-12.5,0-22.9-10.4-22.9-22.9s10.4-22.9,22.9-22.9s22.9,10.4,22.9,22.9S438.9,250.969,426.4,250.969z"/>
</g>
</svg>
